<svg width="198" height="207" viewBox="0 0 198 207" fill="none" xmlns="http://www.w3.org/2000/svg">
<circle cx="99" cy="99" r="99" fill="#D9D9D9"/>
<path fill-rule="evenodd" clip-rule="evenodd" d="M158.907 153.91C145.147 168.924 125.771 178.707 104.106 179.928V127.892C125.771 129.113 145.147 138.895 158.907 153.91ZM165.253 146.052C149.733 129.669 128.155 119.082 104.106 117.877V104.106L179.928 104.106C179.05 119.683 173.746 134.078 165.253 146.052ZM94.1057 117.92V104.106H19.0722C19.9502 119.683 25.2544 134.078 33.7472 146.052C49.0974 129.848 70.3733 119.314 94.1057 117.92ZM179.88 94.1057L104.106 94.1057V80.3342C127.989 79.1378 149.435 68.6882 164.931 52.4975C173.467 64.3589 178.857 78.6355 179.88 94.1057ZM94.1057 94.1057V80.2913C70.5388 78.9068 49.3941 68.5098 34.069 52.4975C25.5333 64.3589 20.1433 78.6355 19.1205 94.1057H94.1057ZM158.543 44.696C144.807 59.4875 125.581 69.1094 104.106 70.3199V19.0722C125.581 20.2826 144.807 29.9046 158.543 44.696ZM40.4572 44.696C54.0247 59.3062 72.949 68.8728 94.1057 70.2716V19.1205C72.949 20.5192 54.0247 30.0859 40.4572 44.696ZM94.1057 179.88V127.94C72.7592 129.351 53.6855 139.078 40.0935 153.91C53.6855 168.742 72.7592 178.468 94.1057 179.88ZM189 99.5C189 50.0705 148.929 10 99.5 10C50.0705 10 10 50.0705 10 99.5C10 148.929 50.0705 189 99.5 189C148.929 189 189 148.929 189 99.5Z" fill="#124E66"/>
<path d="M130.719 165.16C130.374 164.608 130.062 164.035 129.783 163.441C129.526 162.834 129.277 162.238 129.034 161.652C128.799 161.031 128.543 160.424 128.264 159.831C127.993 159.201 127.679 158.599 127.32 158.025C126.591 158.481 125.982 158.907 125.494 159.304C125.005 159.702 124.528 160.092 124.061 160.476C123.595 160.86 123.088 161.253 122.541 161.656C121.981 162.037 121.278 162.461 120.434 162.927C120.251 163.962 120.008 165.097 119.705 166.331C119.423 167.551 119.052 168.75 118.59 169.929C118.129 171.107 117.562 172.214 116.888 173.249C116.201 174.262 115.371 175.072 114.4 175.68C113.737 176.094 113.028 176.383 112.271 176.549C111.537 176.701 110.814 176.723 110.102 176.615C109.389 176.507 108.728 176.26 108.118 175.874C107.494 175.465 106.969 174.918 106.541 174.234C106.32 173.88 106.21 173.581 106.21 173.335C106.218 173.054 106.421 172.789 106.818 172.54C107.017 172.416 107.311 172.493 107.7 172.772C108.076 173.029 108.53 173.313 109.063 173.625C109.604 173.901 110.19 174.103 110.822 174.23C111.441 174.335 112.092 174.174 112.777 173.746C113.616 173.221 114.336 172.556 114.938 171.75C115.548 170.908 116.066 170.017 116.491 169.075C116.925 168.098 117.268 167.1 117.523 166.082C117.799 165.05 118.015 164.07 118.173 163.142C117.762 162.631 117.308 162.347 116.811 162.289C116.314 162.231 115.795 162.187 115.254 162.156C114.735 162.112 114.194 161.959 113.631 161.697C113.068 161.434 112.489 160.828 111.896 159.879C111.054 158.532 110.807 157.227 111.155 155.966C111.489 154.682 112.363 153.599 113.777 152.716C114.196 152.453 114.632 152.242 115.085 152.082C115.56 151.908 116.048 151.757 116.551 151.627C117.039 151.475 117.51 151.319 117.963 151.159C118.438 150.985 118.885 150.767 119.304 150.505C119.569 150.339 119.759 150.175 119.872 150.012C120.007 149.836 120.1 149.64 120.149 149.424C120.199 149.209 120.232 148.943 120.249 148.625C120.265 148.308 120.298 147.919 120.348 147.458C120.37 147.198 120.397 146.798 120.427 146.257C120.466 145.68 120.506 145.056 120.547 144.385C120.575 143.692 120.611 142.964 120.655 142.199C120.699 141.434 120.735 140.706 120.763 140.013C120.791 139.32 120.82 138.703 120.85 138.162C120.88 137.621 120.889 137.217 120.875 136.949C120.994 136.598 121.139 136.339 121.31 136.17C121.467 135.98 121.678 135.802 121.943 135.636C122.208 135.471 122.469 135.446 122.726 135.562C122.969 135.656 123.184 135.828 123.372 136.08C123.582 136.317 123.765 136.586 123.923 136.887C124.088 137.152 124.219 137.362 124.316 137.516C124.357 137.583 124.426 137.693 124.523 137.848C124.606 137.98 124.684 138.131 124.759 138.299C124.855 138.454 124.952 138.608 125.049 138.763C125.131 138.895 125.187 138.984 125.214 139.028C125.286 139.29 125.383 139.69 125.504 140.229C125.647 140.753 125.81 141.358 125.992 142.042C126.161 142.705 126.339 143.407 126.526 144.15C126.736 144.879 126.932 145.585 127.114 146.27C127.318 146.941 127.492 147.538 127.636 148.063C127.779 148.587 127.898 148.974 127.992 149.222C128.039 149.346 128.116 149.544 128.223 149.814C128.331 150.085 128.452 150.378 128.588 150.692C128.709 150.985 128.824 151.266 128.931 151.537C129.039 151.807 129.12 151.987 129.176 152.075C129.402 151.995 129.642 151.937 129.896 151.901C130.15 151.866 130.339 151.947 130.463 152.146C130.601 152.367 130.623 152.598 130.529 152.841C130.458 153.071 130.346 153.309 130.194 153.558C130.042 153.806 129.915 154.07 129.813 154.349C129.733 154.614 129.772 154.896 129.929 155.197C130.05 155.49 130.277 156.024 130.608 156.8C130.925 157.553 131.255 158.376 131.597 159.268C131.948 160.123 132.271 160.935 132.566 161.703C132.883 162.456 133.092 162.986 133.191 163.293C133.21 163.373 133.242 163.522 133.286 163.74C133.33 163.958 133.363 164.183 133.385 164.415C133.407 164.647 133.423 164.867 133.431 165.077C133.439 165.287 133.442 165.439 133.439 165.533C132.84 165.753 132.327 165.89 131.899 165.942C131.457 165.973 131.064 165.712 130.719 165.16ZM122.207 152.791C121.942 152.957 121.684 153.379 121.432 154.058C121.203 154.723 121.015 155.455 120.869 156.252C120.709 157.028 120.611 157.78 120.575 158.509C120.525 159.216 120.576 159.69 120.728 159.933C120.86 159.851 121.114 159.692 121.49 159.457C121.874 159.187 122.275 158.92 122.695 158.658C123.123 158.36 123.518 158.083 123.879 157.826C124.263 157.556 124.532 157.372 124.687 157.275C124.775 157.22 124.894 157.115 125.043 156.961C125.214 156.792 125.374 156.631 125.523 156.476C125.672 156.322 125.799 156.181 125.904 156.054C126.031 155.913 126.099 155.825 126.107 155.789C126.129 155.775 126.099 155.702 126.016 155.57C125.919 155.415 125.843 155.294 125.788 155.205C125.678 155.029 125.472 154.773 125.171 154.439C124.893 154.091 124.57 153.771 124.203 153.478C123.858 153.172 123.503 152.948 123.138 152.808C122.782 152.631 122.472 152.625 122.207 152.791ZM112.919 158.641C113.112 158.95 113.443 159.234 113.913 159.494C114.382 159.753 114.892 159.956 115.445 160.103C115.997 160.249 116.536 160.326 117.063 160.335C117.591 160.343 118.02 160.244 118.351 160.037C118.66 159.843 118.908 159.428 119.093 158.79C119.278 158.153 119.406 157.474 119.478 156.753C119.558 155.997 119.586 155.304 119.561 154.675C119.536 154.045 119.468 153.642 119.358 153.466C119.123 153.09 118.818 152.897 118.443 152.886C118.076 152.839 117.695 152.893 117.3 153.047C116.914 153.166 116.533 153.342 116.157 153.577C115.782 153.812 115.473 154.005 115.23 154.157C114.921 154.35 114.566 154.618 114.166 154.96C113.774 155.266 113.438 155.614 113.159 156.003C112.88 156.392 112.698 156.813 112.613 157.266C112.527 157.719 112.629 158.177 112.919 158.641ZM121.801 150.741C122.646 151.012 123.485 151.347 124.319 151.748C125.152 152.148 125.971 152.573 126.774 153.023L123.098 140.58L121.801 150.741ZM141.812 156.523C142.033 156.385 142.309 156.213 142.64 156.006C142.994 155.785 143.357 155.604 143.73 155.464C144.102 155.323 144.458 155.254 144.798 155.257C145.137 155.26 145.411 155.427 145.618 155.758C145.921 156.244 146.03 156.713 145.945 157.166C145.859 157.618 145.573 157.997 145.087 158.3C145.021 158.342 144.9 158.417 144.723 158.528C144.568 158.624 144.396 158.717 144.205 158.805C144.001 158.871 143.801 158.92 143.605 158.95C143.431 158.967 143.31 158.92 143.241 158.809L141.812 156.523Z" fill="#2E3944"/>
</svg>
